<mxfile host="app.diagrams.net" modified="2023-05-19T06:33:38.666Z" agent="Mozilla/5.0 (Windows NT 10.0; Win64; x64) AppleWebKit/537.36 (KHTML, like Gecko) Chrome/113.0.0.0 Safari/537.36 Edg/113.0.1774.42" etag="wf_bkB1w6lPFFGI5CTHS" version="21.3.2" type="github">
  <diagram name="第 1 页" id="qhcNdBz4ZAKfOKxKuGHO">
    <mxGraphModel dx="1622" dy="936" grid="1" gridSize="10" guides="1" tooltips="1" connect="1" arrows="1" fold="1" page="1" pageScale="1" pageWidth="827" pageHeight="1169" math="0" shadow="0">
      <root>
        <mxCell id="0" />
        <mxCell id="1" parent="0" />
        <mxCell id="175QitMe_7UilUJrBbWU-1" value="&lt;font style=&quot;font-size: 24px;&quot;&gt;V1&lt;/font&gt;" style="ellipse;whiteSpace=wrap;html=1;aspect=fixed;strokeWidth=5;strokeColor=#10739e;shadow=0;opacity=80;snapToPoint=1;fixDash=0;metaEdit=0;backgroundOutline=0;fillColor=#b1ddf0;" vertex="1" parent="1">
          <mxGeometry x="10" y="150" width="80" height="80" as="geometry" />
        </mxCell>
        <mxCell id="175QitMe_7UilUJrBbWU-2" value="&lt;font style=&quot;font-size: 24px;&quot;&gt;V4&lt;/font&gt;" style="ellipse;whiteSpace=wrap;html=1;aspect=fixed;strokeWidth=5;strokeColor=#10739e;shadow=0;opacity=80;snapToPoint=1;fixDash=0;metaEdit=0;backgroundOutline=0;fillColor=#b1ddf0;fontSize=24;" vertex="1" parent="1">
          <mxGeometry x="290" y="360" width="80" height="80" as="geometry" />
        </mxCell>
        <mxCell id="175QitMe_7UilUJrBbWU-3" style="edgeStyle=orthogonalEdgeStyle;rounded=0;orthogonalLoop=1;jettySize=auto;html=1;exitX=1;exitY=0.5;exitDx=0;exitDy=0;entryX=0;entryY=0.5;entryDx=0;entryDy=0;strokeWidth=5;endArrow=none;endFill=0;fillColor=#b1ddf0;strokeColor=#10739e;startArrow=none;startFill=0;fontSize=24;" edge="1" parent="1" source="175QitMe_7UilUJrBbWU-4" target="175QitMe_7UilUJrBbWU-2">
          <mxGeometry relative="1" as="geometry" />
        </mxCell>
        <mxCell id="175QitMe_7UilUJrBbWU-4" value="&lt;font style=&quot;font-size: 24px;&quot;&gt;V3&lt;/font&gt;" style="ellipse;whiteSpace=wrap;html=1;aspect=fixed;strokeWidth=5;strokeColor=#10739e;shadow=0;opacity=80;snapToPoint=1;fixDash=0;metaEdit=0;backgroundOutline=0;fillColor=#b1ddf0;" vertex="1" parent="1">
          <mxGeometry x="10" y="360" width="80" height="80" as="geometry" />
        </mxCell>
        <mxCell id="175QitMe_7UilUJrBbWU-5" value="&lt;font style=&quot;font-size: 24px;&quot;&gt;V2&lt;/font&gt;" style="ellipse;whiteSpace=wrap;html=1;aspect=fixed;strokeWidth=5;strokeColor=#10739e;shadow=0;opacity=80;snapToPoint=1;fixDash=0;metaEdit=0;backgroundOutline=0;fillColor=#b1ddf0;fontSize=24;" vertex="1" parent="1">
          <mxGeometry x="290" y="150" width="80" height="80" as="geometry" />
        </mxCell>
        <mxCell id="175QitMe_7UilUJrBbWU-6" value="" style="endArrow=none;html=1;rounded=0;exitX=1;exitY=0.5;exitDx=0;exitDy=0;entryX=0;entryY=0.5;entryDx=0;entryDy=0;strokeWidth=5;strokeColor=#10739e;shadow=0;opacity=80;snapToPoint=1;fixDash=0;metaEdit=0;backgroundOutline=0;endFill=0;startArrow=none;startFill=0;fillColor=#b1ddf0;fontSize=24;" edge="1" parent="1">
          <mxGeometry width="50" height="50" relative="1" as="geometry">
            <mxPoint x="90" y="189.5" as="sourcePoint" />
            <mxPoint x="290.0000000000002" y="189.5" as="targetPoint" />
            <Array as="points">
              <mxPoint x="150" y="189.5" />
            </Array>
          </mxGeometry>
        </mxCell>
        <mxCell id="175QitMe_7UilUJrBbWU-7" value="" style="endArrow=none;html=1;rounded=0;entryX=0;entryY=1;entryDx=0;entryDy=0;strokeWidth=5;strokeColor=#10739e;shadow=0;opacity=80;snapToPoint=1;fixDash=0;metaEdit=0;backgroundOutline=0;endFill=0;fillColor=#b1ddf0;startArrow=none;startFill=0;fontSize=24;exitX=1;exitY=0;exitDx=0;exitDy=0;" edge="1" parent="1" source="175QitMe_7UilUJrBbWU-4">
          <mxGeometry width="50" height="50" relative="1" as="geometry">
            <mxPoint x="74.5" y="367" as="sourcePoint" />
            <mxPoint x="297.7157287525381" y="213.28427124746167" as="targetPoint" />
          </mxGeometry>
        </mxCell>
        <mxCell id="175QitMe_7UilUJrBbWU-8" value="" style="endArrow=none;html=1;rounded=0;exitX=1;exitY=1;exitDx=0;exitDy=0;strokeWidth=5;strokeColor=#10739e;shadow=0;opacity=80;snapToPoint=1;fixDash=0;metaEdit=0;backgroundOutline=0;endFill=0;fillColor=#b1ddf0;startArrow=none;startFill=0;fontSize=24;" edge="1" parent="1">
          <mxGeometry width="50" height="50" relative="1" as="geometry">
            <mxPoint x="80.0042712474619" y="220.0042712474619" as="sourcePoint" />
            <mxPoint x="303.5533333333335" y="373.72" as="targetPoint" />
          </mxGeometry>
        </mxCell>
        <mxCell id="175QitMe_7UilUJrBbWU-9" value="" style="endArrow=none;html=1;rounded=0;exitX=0.5;exitY=1;exitDx=0;exitDy=0;strokeWidth=5;strokeColor=#10739e;shadow=0;opacity=80;snapToPoint=1;fixDash=0;metaEdit=0;backgroundOutline=0;endFill=0;startArrow=none;startFill=0;fillColor=#b1ddf0;fontSize=24;" edge="1" parent="1">
          <mxGeometry width="50" height="50" relative="1" as="geometry">
            <mxPoint x="329.5" y="230" as="sourcePoint" />
            <mxPoint x="329.5" y="360" as="targetPoint" />
          </mxGeometry>
        </mxCell>
        <mxCell id="175QitMe_7UilUJrBbWU-10" value="&lt;font style=&quot;font-size: 24px;&quot;&gt;(a)&lt;/font&gt;" style="rounded=0;whiteSpace=wrap;html=1;fillColor=#b1ddf0;strokeColor=#10739e;fontSize=24;" vertex="1" parent="1">
          <mxGeometry x="120" y="450" width="150" height="60" as="geometry" />
        </mxCell>
        <mxCell id="175QitMe_7UilUJrBbWU-11" value="&lt;font style=&quot;font-size: 24px;&quot;&gt;V1&lt;/font&gt;" style="ellipse;whiteSpace=wrap;html=1;aspect=fixed;strokeWidth=5;strokeColor=#10739e;shadow=0;opacity=80;snapToPoint=1;fixDash=0;metaEdit=0;backgroundOutline=0;fillColor=#b1ddf0;fontSize=24;" vertex="1" parent="1">
          <mxGeometry x="414" y="150" width="80" height="80" as="geometry" />
        </mxCell>
        <mxCell id="175QitMe_7UilUJrBbWU-12" value="&lt;font style=&quot;font-size: 24px;&quot;&gt;V4&lt;/font&gt;" style="ellipse;whiteSpace=wrap;html=1;aspect=fixed;strokeWidth=5;strokeColor=#10739e;shadow=0;opacity=80;snapToPoint=1;fixDash=0;metaEdit=0;backgroundOutline=0;fillColor=#b1ddf0;fontSize=24;" vertex="1" parent="1">
          <mxGeometry x="694" y="360" width="80" height="80" as="geometry" />
        </mxCell>
        <mxCell id="175QitMe_7UilUJrBbWU-13" value="&lt;font style=&quot;font-size: 24px;&quot;&gt;V3&lt;/font&gt;" style="ellipse;whiteSpace=wrap;html=1;aspect=fixed;strokeWidth=5;strokeColor=#10739e;shadow=0;opacity=80;snapToPoint=1;fixDash=0;metaEdit=0;backgroundOutline=0;fillColor=#b1ddf0;fontSize=24;" vertex="1" parent="1">
          <mxGeometry x="414" y="360" width="80" height="80" as="geometry" />
        </mxCell>
        <mxCell id="175QitMe_7UilUJrBbWU-14" value="&lt;font style=&quot;font-size: 24px;&quot;&gt;V2&lt;/font&gt;" style="ellipse;whiteSpace=wrap;html=1;aspect=fixed;strokeWidth=5;strokeColor=#10739e;shadow=0;opacity=80;snapToPoint=1;fixDash=0;metaEdit=0;backgroundOutline=0;fillColor=#b1ddf0;fontSize=24;" vertex="1" parent="1">
          <mxGeometry x="694" y="150" width="80" height="80" as="geometry" />
        </mxCell>
        <mxCell id="175QitMe_7UilUJrBbWU-15" value="&lt;font style=&quot;font-size: 24px;&quot;&gt;(b)&lt;/font&gt;" style="rounded=0;whiteSpace=wrap;html=1;fillColor=#b1ddf0;strokeColor=#10739e;fontSize=24;" vertex="1" parent="1">
          <mxGeometry x="524" y="450" width="150" height="60" as="geometry" />
        </mxCell>
        <mxCell id="175QitMe_7UilUJrBbWU-16" value="&lt;font style=&quot;font-size: 24px;&quot;&gt;V1&lt;/font&gt;" style="ellipse;whiteSpace=wrap;html=1;aspect=fixed;strokeWidth=5;strokeColor=#10739e;shadow=0;opacity=80;snapToPoint=1;fixDash=0;metaEdit=0;backgroundOutline=0;fillColor=#b1ddf0;fontSize=24;" vertex="1" parent="1">
          <mxGeometry x="800" y="150" width="80" height="80" as="geometry" />
        </mxCell>
        <mxCell id="175QitMe_7UilUJrBbWU-17" value="&lt;font style=&quot;font-size: 24px;&quot;&gt;V4&lt;/font&gt;" style="ellipse;whiteSpace=wrap;html=1;aspect=fixed;strokeWidth=5;strokeColor=#10739e;shadow=0;opacity=80;snapToPoint=1;fixDash=0;metaEdit=0;backgroundOutline=0;fillColor=#b1ddf0;fontSize=24;" vertex="1" parent="1">
          <mxGeometry x="1080" y="360" width="80" height="80" as="geometry" />
        </mxCell>
        <mxCell id="175QitMe_7UilUJrBbWU-18" value="&lt;font style=&quot;font-size: 24px;&quot;&gt;V3&lt;/font&gt;" style="ellipse;whiteSpace=wrap;html=1;aspect=fixed;strokeWidth=5;strokeColor=#10739e;shadow=0;opacity=80;snapToPoint=1;fixDash=0;metaEdit=0;backgroundOutline=0;fillColor=#b1ddf0;fontSize=24;" vertex="1" parent="1">
          <mxGeometry x="800" y="360" width="80" height="80" as="geometry" />
        </mxCell>
        <mxCell id="175QitMe_7UilUJrBbWU-19" value="&lt;font style=&quot;font-size: 24px;&quot;&gt;V2&lt;/font&gt;" style="ellipse;whiteSpace=wrap;html=1;aspect=fixed;strokeWidth=5;strokeColor=#10739e;shadow=0;opacity=80;snapToPoint=1;fixDash=0;metaEdit=0;backgroundOutline=0;fillColor=#b1ddf0;fontSize=24;" vertex="1" parent="1">
          <mxGeometry x="1080" y="150" width="80" height="80" as="geometry" />
        </mxCell>
        <mxCell id="175QitMe_7UilUJrBbWU-20" value="&lt;font style=&quot;font-size: 24px;&quot;&gt;(c)&lt;/font&gt;" style="rounded=0;whiteSpace=wrap;html=1;fillColor=#b1ddf0;strokeColor=#10739e;fontSize=24;" vertex="1" parent="1">
          <mxGeometry x="910" y="450" width="150" height="60" as="geometry" />
        </mxCell>
        <mxCell id="175QitMe_7UilUJrBbWU-22" value="" style="endArrow=none;html=1;rounded=0;exitX=1;exitY=0.5;exitDx=0;exitDy=0;entryX=0;entryY=0.5;entryDx=0;entryDy=0;strokeWidth=5;strokeColor=#10739e;shadow=0;opacity=80;snapToPoint=1;fixDash=0;metaEdit=0;backgroundOutline=0;endFill=0;startArrow=none;startFill=0;fillColor=#b1ddf0;fontSize=24;" edge="1" parent="1">
          <mxGeometry width="50" height="50" relative="1" as="geometry">
            <mxPoint x="885" y="189.5" as="sourcePoint" />
            <mxPoint x="1085.0000000000002" y="189.5" as="targetPoint" />
            <Array as="points">
              <mxPoint x="945" y="189.5" />
            </Array>
          </mxGeometry>
        </mxCell>
        <mxCell id="175QitMe_7UilUJrBbWU-23" value="" style="endArrow=none;html=1;rounded=0;exitX=0.5;exitY=1;exitDx=0;exitDy=0;strokeWidth=5;strokeColor=#10739e;shadow=0;opacity=80;snapToPoint=1;fixDash=0;metaEdit=0;backgroundOutline=0;endFill=0;startArrow=none;startFill=0;fillColor=#b1ddf0;fontSize=24;" edge="1" parent="1">
          <mxGeometry width="50" height="50" relative="1" as="geometry">
            <mxPoint x="733.5" y="230" as="sourcePoint" />
            <mxPoint x="733.5" y="360" as="targetPoint" />
          </mxGeometry>
        </mxCell>
        <mxCell id="175QitMe_7UilUJrBbWU-24" value="" style="endArrow=none;html=1;rounded=0;exitX=0.5;exitY=1;exitDx=0;exitDy=0;strokeWidth=5;strokeColor=#10739e;shadow=0;opacity=80;snapToPoint=1;fixDash=0;metaEdit=0;backgroundOutline=0;endFill=0;startArrow=none;startFill=0;fillColor=#b1ddf0;fontSize=24;" edge="1" parent="1">
          <mxGeometry width="50" height="50" relative="1" as="geometry">
            <mxPoint x="1119.5" y="230" as="sourcePoint" />
            <mxPoint x="1119.5" y="360" as="targetPoint" />
          </mxGeometry>
        </mxCell>
        <mxCell id="175QitMe_7UilUJrBbWU-25" style="edgeStyle=orthogonalEdgeStyle;rounded=0;orthogonalLoop=1;jettySize=auto;html=1;exitX=1;exitY=0.5;exitDx=0;exitDy=0;entryX=0;entryY=0.5;entryDx=0;entryDy=0;strokeWidth=5;endArrow=none;endFill=0;fillColor=#b1ddf0;strokeColor=#10739e;startArrow=none;startFill=0;fontSize=24;" edge="1" parent="1">
          <mxGeometry relative="1" as="geometry">
            <mxPoint x="494" y="399.5" as="sourcePoint" />
            <mxPoint x="694" y="399.5" as="targetPoint" />
          </mxGeometry>
        </mxCell>
        <mxCell id="175QitMe_7UilUJrBbWU-26" style="edgeStyle=orthogonalEdgeStyle;rounded=0;orthogonalLoop=1;jettySize=auto;html=1;exitX=1;exitY=0.5;exitDx=0;exitDy=0;entryX=0;entryY=0.5;entryDx=0;entryDy=0;strokeWidth=5;endArrow=none;endFill=0;fillColor=#b1ddf0;strokeColor=#10739e;startArrow=none;startFill=0;fontSize=24;" edge="1" parent="1">
          <mxGeometry relative="1" as="geometry">
            <mxPoint x="880" y="399.5" as="sourcePoint" />
            <mxPoint x="1080" y="399.5" as="targetPoint" />
          </mxGeometry>
        </mxCell>
        <mxCell id="175QitMe_7UilUJrBbWU-28" style="edgeStyle=orthogonalEdgeStyle;rounded=0;orthogonalLoop=1;jettySize=auto;html=1;exitX=0.5;exitY=1;exitDx=0;exitDy=0;entryX=0.5;entryY=0;entryDx=0;entryDy=0;strokeWidth=5;endArrow=none;endFill=0;fillColor=#b1ddf0;strokeColor=#10739e;startArrow=none;startFill=0;fontSize=24;entryPerimeter=0;" edge="1" parent="1">
          <mxGeometry relative="1" as="geometry">
            <mxPoint x="839.5" y="230" as="sourcePoint" />
            <mxPoint x="839.5" y="360" as="targetPoint" />
          </mxGeometry>
        </mxCell>
        <mxCell id="175QitMe_7UilUJrBbWU-30" value="" style="endArrow=none;html=1;rounded=0;exitX=1;exitY=1;exitDx=0;exitDy=0;strokeWidth=5;strokeColor=#10739e;shadow=0;opacity=80;snapToPoint=1;fixDash=0;metaEdit=0;backgroundOutline=0;endFill=0;fillColor=#b1ddf0;startArrow=none;startFill=0;fontSize=24;" edge="1" parent="1">
          <mxGeometry width="50" height="50" relative="1" as="geometry">
            <mxPoint x="483.22427124746196" y="216.0042712474619" as="sourcePoint" />
            <mxPoint x="706.7733333333335" y="369.72" as="targetPoint" />
          </mxGeometry>
        </mxCell>
      </root>
    </mxGraphModel>
  </diagram>
</mxfile>
